<svg xmlns="http://www.w3.org/2000/svg" viewBox="-15 -5 230 225" width="512" height="512">
<rect x="-15" y="-5" width="230" height="225" fill="#0d0b08"/>
<path d="M100.0,170.0 L97.4,169.9 L94.9,169.7 L92.4,169.3 L89.8,168.7 L87.3,168.0 L84.9,167.2 L82.4,166.1 L80.0,165.0 L77.6,163.7 L75.3,162.2 L73.0,160.6 L70.8,158.8 L68.6,157.0 L66.5,154.9 L64.5,152.8 L62.5,150.5 L60.6,148.1 L58.7,145.6 L57.0,143.0 L55.3,140.3 L53.7,137.4 L52.2,134.5 L50.8,131.5 L49.5,128.4 L48.3,125.2 L47.2,122.0 L46.2,118.7 L45.3,115.3 L44.5,111.9 L43.8,108.4 L43.2,104.9 L42.8,101.3 L42.4,97.8 L42.2,94.2 L42.0,90.6 L42.0,87.0 L42.1,83.4 L42.3,79.8 L42.6,76.2 L43.0,72.6 L43.6,69.1 L44.2,65.6 L45.0,62.2 L45.8,58.8 L46.8,55.4 L47.8,52.2 L49.0,48.9 L50.3,45.8 L51.6,42.8 L53.1,39.8" fill="none" stroke="#c4a96c" stroke-width="3.5" stroke-linecap="round"/><path d="M100.0,170.0 L102.6,169.9 L105.1,169.7 L107.6,169.3 L110.2,168.7 L112.7,168.0 L115.1,167.2 L117.6,166.1 L120.0,165.0 L122.4,163.7 L124.7,162.2 L127.0,160.6 L129.2,158.8 L131.4,157.0 L133.5,154.9 L135.5,152.8 L137.5,150.5 L139.4,148.1 L141.3,145.6 L143.0,143.0 L144.7,140.3 L146.3,137.4 L147.8,134.5 L149.2,131.5 L150.5,128.4 L151.7,125.2 L152.8,122.0 L153.8,118.7 L154.7,115.3 L155.5,111.9 L156.2,108.4 L156.8,104.9 L157.2,101.3 L157.6,97.8 L157.8,94.2 L158.0,90.6 L158.0,87.0 L157.9,83.4 L157.7,79.8 L157.4,76.2 L157.0,72.6 L156.4,69.1 L155.8,65.6 L155.0,62.2 L154.2,58.8 L153.2,55.4 L152.2,52.2 L151.0,48.9 L149.7,45.8 L148.4,42.8 L146.9,39.8" fill="none" stroke="#c4a96c" stroke-width="3.5" stroke-linecap="round"/><path d="M96.2,169.8 Q93.1,181.4 106.1,192.6 Q106.8,175.5 96.2,169.8Z" fill="#c4a96c"/><path d="M103.8,169.8 Q93.2,175.5 93.9,192.6 Q106.9,181.4 103.8,169.8Z" fill="#c4a96c"/><path d="M83.6,166.7 Q77.2,179.8 89.9,196.2 Q94.9,176.0 83.6,166.7Z" fill="#c4a96c"/><path d="M116.4,166.7 Q105.1,176.0 110.1,196.2 Q122.8,179.8 116.4,166.7Z" fill="#c4a96c"/><path d="M71.9,159.7 Q61.6,173.0 72.3,194.5 Q82.5,172.8 71.9,159.7Z" fill="#c4a96c"/><path d="M128.1,159.7 Q117.5,172.8 127.7,194.5 Q138.4,173.0 128.1,159.7Z" fill="#c4a96c"/><path d="M61.5,149.3 Q47.6,161.4 54.3,186.7 Q70.0,165.7 61.5,149.3Z" fill="#c4a96c"/><path d="M138.5,149.3 Q130.0,165.7 145.7,186.7 Q152.4,161.4 138.5,149.3Z" fill="#c4a96c"/><path d="M53.0,136.0 Q36.1,145.2 37.4,172.6 Q58.1,154.6 53.0,136.0Z" fill="#c4a96c"/><path d="M147.0,136.0 Q141.9,154.6 162.6,172.6 Q163.9,145.2 147.0,136.0Z" fill="#c4a96c"/><path d="M46.7,120.3 Q28.2,125.5 23.3,152.5 Q47.4,139.6 46.7,120.3Z" fill="#c4a96c"/><path d="M153.3,120.3 Q152.6,139.6 176.7,152.5 Q171.8,125.5 153.3,120.3Z" fill="#c4a96c"/><path d="M43.0,103.1 Q24.6,103.6 13.7,127.4 Q39.1,121.1 43.0,103.1Z" fill="#c4a96c"/><path d="M157.0,103.1 Q160.9,121.1 186.3,127.4 Q175.4,103.6 157.0,103.1Z" fill="#c4a96c"/><path d="M42.0,85.2 Q25.7,81.2 10.5,99.6 Q34.4,100.1 42.0,85.2Z" fill="#c4a96c"/><path d="M158.0,85.2 Q165.6,100.1 189.5,99.6 Q174.3,81.2 158.0,85.2Z" fill="#c4a96c"/><path d="M43.9,67.4 Q31.0,60.4 14.1,72.5 Q34.1,78.2 43.9,67.4Z" fill="#c4a96c"/><path d="M156.1,67.4 Q165.9,78.2 185.9,72.5 Q169.0,60.4 156.1,67.4Z" fill="#c4a96c"/><path d="M48.4,50.5 Q39.5,42.4 23.7,48.7 Q38.5,57.3 48.4,50.5Z" fill="#c4a96c"/><path d="M151.6,50.5 Q161.5,57.3 176.3,48.7 Q160.5,42.4 151.6,50.5Z" fill="#c4a96c"/><path d="M92.0,170.0 L108.0,184.0 M108.0,170.0 L92.0,184.0" fill="none" stroke="#c4a96c" stroke-width="3.5" stroke-linecap="round"/>
</svg>