<svg xmlns="http://www.w3.org/2000/svg" width="512" height="512" viewBox="-15 -15 150 150">
  <rect x="-15" y="-15" width="150" height="150" fill="#0d0b08"/>
  <g fill="#c4a96c">
    <ellipse cx="35" cy="12" rx="3.5" ry="8" transform="rotate(-65,35,12)"/>
    <ellipse cx="25" cy="22" rx="4" ry="9" transform="rotate(-50,25,22)"/>
    <ellipse cx="17" cy="34" rx="4.5" ry="10" transform="rotate(-38,17,34)"/>
    <ellipse cx="13" cy="48" rx="5" ry="11" transform="rotate(-22,13,48)"/>
    <ellipse cx="13" cy="62" rx="5" ry="11" transform="rotate(-8,13,62)"/>
    <ellipse cx="17" cy="76" rx="5" ry="11" transform="rotate(10,17,76)"/>
    <ellipse cx="25" cy="88" rx="4.5" ry="10" transform="rotate(26,25,88)"/>
    <ellipse cx="36" cy="97" rx="4" ry="9" transform="rotate(40,36,97)"/>
    <ellipse cx="48" cy="102" rx="3.5" ry="8" transform="rotate(55,48,102)"/>
    <ellipse cx="85" cy="12" rx="3.5" ry="8" transform="rotate(65,85,12)"/>
    <ellipse cx="95" cy="22" rx="4" ry="9" transform="rotate(50,95,22)"/>
    <ellipse cx="103" cy="34" rx="4.5" ry="10" transform="rotate(38,103,34)"/>
    <ellipse cx="107" cy="48" rx="5" ry="11" transform="rotate(22,107,48)"/>
    <ellipse cx="107" cy="62" rx="5" ry="11" transform="rotate(8,107,62)"/>
    <ellipse cx="103" cy="76" rx="5" ry="11" transform="rotate(-10,103,76)"/>
    <ellipse cx="95" cy="88" rx="4.5" ry="10" transform="rotate(-26,95,88)"/>
    <ellipse cx="84" cy="97" rx="4" ry="9" transform="rotate(-40,84,97)"/>
    <ellipse cx="72" cy="102" rx="3.5" ry="8" transform="rotate(-55,72,102)"/>
  </g>
  <path d="M52 106 Q56 112 60 114 Q64 112 68 106" fill="none" stroke="#c4a96c" stroke-width="2.5" stroke-linecap="round"/>
</svg>
